Coordinates
version=1
nRows=38
nColumns=12
inDegrees=yes

Units are S.I. units (second, meters, Newtons, ...)
Angles are in degrees

endheader
time	SC_y	SC_z	SC_x	AC_y	AC_z	AC_x	GH_y	GH_z	GH_yy	EL_x	PS_y
       0.0              -37.32          24.43          79.98          34.14          -8.61          4.904          46.85         -5.067         -44.44          113.4          43.86
   0.03969              -37.32          24.42          79.97          34.14         -8.609          4.904          46.82         -5.062         -44.41          113.4          43.85
   0.07937              -37.32          24.42          79.96          34.14         -8.609          4.904          46.79         -5.055         -44.38          113.4          43.85
    0.1191              -37.32          24.41          79.95          34.15         -8.609          4.904          46.77         -5.049         -44.34          113.4          43.85
    0.1587              -37.32          24.41          79.94          34.15         -8.609          4.904          46.73         -5.042          -44.3          113.4          43.85
    0.1984              -37.31           24.4          79.93          34.15         -8.609          4.904           46.7         -5.034         -44.26          113.4          43.84
    0.2381              -37.31           24.4          79.92          34.16         -8.609          4.904          46.67         -5.026         -44.22          113.4          43.84
    0.2778              -37.31          24.39          79.91          34.16         -8.609          4.904          46.63         -5.018         -44.17          113.3          43.84
    0.3175              -37.31          24.39           79.9          34.16         -8.608          4.904          46.59         -5.008         -44.13          113.3          43.84
    0.3572              -37.31          24.38          79.89          34.17         -8.608          4.904          46.55         -4.998         -44.07          113.3          43.83
    0.3969              -37.31          24.37          79.87          34.17         -8.608          4.904           46.5         -4.988         -44.02          113.3          43.83
    0.4365              -37.31          24.36          79.86          34.18         -8.608          4.904          46.45         -4.976         -43.96          113.2          43.83
    0.4762               -37.3          24.36          79.84          34.18         -8.608          4.904           46.4         -4.964         -43.89          113.2          43.82
    0.5159               -37.3          24.35          79.82          34.19         -8.607          4.904          46.34         -4.951         -43.82          113.2          43.82
    0.5556               -37.3          24.34           79.8          34.19         -8.607          4.904          46.28         -4.936         -43.74          113.2          43.81
    0.5953               -37.3          24.33          79.78           34.2         -8.607          4.904          46.21         -4.921         -43.66          113.1          43.81
     0.635               -37.3          24.32          79.76          34.21         -8.607          4.904          46.13         -4.904         -43.57          113.1           43.8
    0.6747              -37.29           24.3          79.74          34.22         -8.606          4.904          46.05         -4.885         -43.47          113.0          43.79
    0.7143              -37.29          24.29          79.71          34.23         -8.606          4.904          45.97         -4.865         -43.37          113.0          43.79
     0.754              -37.29          24.27          79.68          34.23         -8.605          4.904          45.87         -4.843         -43.25          112.9          43.78
    0.7937              -37.28          24.26          79.65          34.25         -8.605          4.904          45.76         -4.819         -43.12          112.9          43.77
    0.8334              -37.28          24.24          79.61          34.26         -8.604          4.904          45.65         -4.792         -42.98          112.8          43.76
    0.8731              -37.27          24.22          79.57          34.27         -8.604          4.903          45.52         -4.763         -42.82          112.8          43.75
    0.9128              -37.27           24.2          79.53          34.28         -8.603          4.903          45.38          -4.73         -42.65          112.7          43.74
    0.9525              -37.26          24.17          79.48           34.3         -8.603          4.903          45.22         -4.694         -42.46          112.6          43.73
    0.9921              -37.26          24.14          79.43          34.32         -8.602          4.903          45.04         -4.653         -42.24          112.5          43.72
     1.032              -37.25          24.11          79.37          34.34         -8.601          4.903          44.85         -4.608          -42.0          112.4           43.7
     1.072              -37.24          24.08           79.3          34.36           -8.6          4.903          44.62         -4.557         -41.73          112.3          43.68
     1.111              -37.24          24.04          79.22          34.38         -8.599          4.903          44.37         -4.499         -41.42          112.2          43.66
     1.151              -37.23           24.0          79.13          34.41         -8.598          4.902          44.09         -4.434         -41.07          112.0          43.64
     1.191              -37.21          23.94          79.04          34.44         -8.596          4.902          43.76         -4.359         -40.68          111.9          43.62
      1.23               -37.2          23.89          78.92          34.48         -8.595          4.902          43.39         -4.273         -40.22          111.7          43.59
      1.27              -37.19          23.82          78.79          34.52         -8.593          4.901          42.96         -4.174          -39.7          111.5          43.55
      1.31              -37.17          23.74          78.64          34.57         -8.591          4.901          42.46         -4.059         -39.08          111.2          43.52
     1.349              -37.15          23.65          78.46          34.63         -8.588            4.9          41.87         -3.925         -38.37          110.9          43.47
     1.389              -37.13          23.54          78.24           34.7         -8.585            4.9          41.18         -3.766         -37.53          110.6          43.42
     1.429               -37.1          23.41          77.99          34.78         -8.582          4.899          40.36         -3.578         -36.52          110.1          43.35
     1.468              -37.06          23.26          77.69          34.88         -8.577          4.898          39.38         -3.352         -35.32          109.6          43.28
